#!OML:ASF F:\VICON\USERDATA\INSTALL\rory3\rory3.ASF
:FULLY-SPECIFIED
:DEGREES
47
root -1.251118568807502 17.186698155912268 -1.984048324892667 4.173830094951714 2.3301582889865955 5.050515048113465
lfemur -23.27619263439869 2.0182757130331477 -29.676371574194675
ltibia 55.39200320720396
lfoot -22.242423630409036 -5.893961694611609
ltoes 5.714043673084028
rfemur -20.04516567309002 -6.05850317790336 16.86932986595002
rtibia 109.24769546947198
rfoot 15.421164755365684 -5.417969630692878
rtoes 20.27720874282899
lowerback 1.0 1.1575375772476044 -3.8936974581751507
upperback 0.5482859831689908 1.3637415893628364 -1.8764958227843538
thorax -8.75603841173087 0.5674597268486435 0.3924930859003748
lowerneck -21.685781951360457 -5.561569053711707 -1.112228145558169
upperneck 12.536175893913843 -8.169131306504251 3.9438668224390487
head 7.52563191228868 -3.2408266099497935 0.678668722857761
lclavicle -2.820874010435965e-16 -3.679830481903187e-14
lhumerus -45.68607228833708 -11.358726144268443 94.27047962669981
lradius 110.16091359079189
lwrist 33.407966964114976
lhand -26.948770098439603 -4.394813877083754
lfingers nan
lthumb -0.35376966206382976 25.7075092116147
rclavicle 2.2962549272014107e-15 -3.6183427338805534e-14
rhumerus -50.40946806521926 6.116507975373267 -96.2369260432117
rradius 87.79255344727376
rwrist -18.757463248203294
rhand -19.18641127253022 1.0
rfingers nan
rthumb 7.177044510720007 10.026731287760391
48
root -1.2686888737986073 17.191927816305576 -2.200201239100931 4.467762224855862 2.047236426431387 4.682804244484672
lfemur -21.775916911227174 2.007533245885388 -29.653386004388334
ltibia 55.274992528098394
lfoot -23.448880688727897 -4.243794470532384
ltoes 1.1543179662126235
rfemur -23.652796369383637 -6.470410464030811 16.739335410278066
rtibia 110.7921768558187
rfoot 14.915797314194108 -4.406531149400258
rtoes 12.947240083513545
lowerback 1.0 1.2535582679661275 -4.292447339869768
upperback 0.5009036160201847 1.431187495663552 -1.7658145664909295
thorax -8.521851733779958 0.6046633233351925 0.5965088371509255
lowerneck -22.402387623110833 -5.468270700471754 -1.160730419553722
upperneck 12.584925156359674 -8.08493944527083 3.8513989108565827
head 7.628442218556363 -3.209989487713739 0.6474261149831567
lclavicle 1.6203755481676537e-14 -3.690163501368977e-14
lhumerus -43.53442559647159 -12.09365110761877 94.02780845169235
lradius 110.31944410590039
lwrist 32.140093574327565
lhand -26.382950688613324 -3.9527244050815806
lfingers nan
lthumb 0.2069970221627906 26.19014301596272
rclavicle 1.878894405077928e-14 -3.6454048901016765e-14
rhumerus -52.00408797739766 5.373549597539877 -96.16452365517704
rradius 87.03059227664103
rwrist -14.780963951176991
rhand -20.18408154778279 1.0
rfingers nan
rthumb 6.211402766887427 8.646029078540817
49
root -1.2841635820671462 17.21134246600324 -1.5413953197799781 4.7096117560396245 1.4156086511733892 4.086948083610677
lfemur -20.11744513751284 2.296201689719189 -29.284627640374772
ltibia 55.050994788437464
lfoot -24.276010936589856 -3.2548002062950214
ltoes 2.040994068032971
rfemur -27.41246072054698 -6.065555874751517 17.168761619546554
rtibia 111.9034542557685
rfoot 14.103411141505234 -4.145488632273139
rtoes 18.346908688498573
lowerback 1.0 1.4264928609857521 -4.51838871864446
upperback 0.32349061260636697 1.6209274743365256 -1.6281256908257875
thorax -8.475017777803105 0.7007031606384657 0.6454321046101299
lowerneck -22.747577614917503 -5.266870050638035 -1.2249807200809073
upperneck 12.763854237314021 -7.861736621626254 3.7933329893885586
head 7.736827081982159 -3.1169940840476067 0.6371772607022897
lclavicle -2.5922718856353618e-14 2.1158162737780766e-15
lhumerus -41.79143341946248 -12.501707869096172 93.72734108613967
lradius 110.53329578704505
lwrist 30.968703142567083
lhand -26.94777676132478 -5.57794108790689
lfingers nan
lthumb -0.32727082135400964 24.557609951659032
rclavicle -2.3735553626794693e-14 2.8690977800557725e-15
rhumerus -53.59613989193873 5.011028848631924 -96.16492249621098
rradius 86.98876378935117
rwrist -13.070272936610042
rhand -21.10727694220466 1.0
rfingers nan
rthumb 5.318526673025464 9.287867561909614
50
root -1.287274784187986 17.260776840982928 -0.8756080612756243 4.992101927695414 0.30459739974305255 3.326938086098965
lfemur -18.4350767081878 3.267563702902904 -28.821630960813803
ltibia 54.35337668058635
lfoot -24.262438492603273 -2.3675225490772167
ltoes 2.491501130514653
rfemur -31.326446704563722 -4.574743172648384 17.90793172909747
rtibia 112.27357435870196
rfoot 13.884645202527528 -4.1978315383196
rtoes 18.33623378084473
lowerback 1.0 1.721910709503216 -4.690395001510019
upperback -0.12695334115551388 1.9546121993679737 -1.4947019818977045
thorax -8.877107909498571 0.8745235401662252 0.6159429516984649
lowerneck -21.969446565723747 -4.975159810798239 -1.2998515270425273
upperneck 12.71429276179569 -7.434216431426584 3.6970686281607392
head 7.633179631803848 -2.9651731660452088 0.6429881319355604
lclavicle -4.983680179189857e-14 5.694563225619217e-15
lhumerus -40.72810305796093 -12.432809225556877 93.393092168832
lradius 111.42022267929877
lwrist 30.00230679044336
lhand -27.4401413953842 -7.639064220276154
lfingers nan
lthumb -0.8051570797244738 22.456516727863054
rclavicle -4.807239825256318e-14 6.363941706621781e-15
rhumerus -55.621488623855996 4.9968510720029125 -96.31601477089151
rradius 87.93336347320371
rwrist -13.47439715047603
rhand -21.377588360752355 1.0
rfingers nan
rthumb 5.07703161464603 9.143252292011777
51
root -1.280012238243417 17.330566507258 -0.7449112848406028 5.08927331112887 -0.6177243363498632 2.7981879694007823
lfemur -16.553740240294076 4.1812134494555995 -28.55486873536352
ltibia 53.38304986573267
lfoot -23.766086629690463 -2.0829196006184887
ltoes 2.4863533826954356
rfemur -34.38121979546894 -3.1100953990325197 18.38723084084326
rtibia 111.65464701784845
rfoot 13.867314547517134 -3.736945667062394
rtoes 2.7193612111782866
lowerback 1.0 1.9321377973141574 -5.117307390099877
upperback -0.2941847911036447 2.2012391986261743 -1.3389612018719657
thorax -9.048804314284473 1.012451698364306 0.8166738686474584
lowerneck -22.135445544463447 -4.634731648924342 -1.3347971872830116
upperneck 12.880220951515328 -6.876471550149361 3.490182689146095
head 7.667284560392383 -2.76605558501653 0.6225036855176075
lclavicle 2.140905430324592e-14 1.1087528894494481e-14
lhumerus -39.676476475734574 -12.103373559120065 92.98242785287376
lradius 112.74215572490708
lwrist 29.51466489346085
lhand -28.43878258780834 -9.050765275672406
lfingers nan
lthumb -1.768799647712426 21.042225655985604
rclavicle 2.3093026338491525e-14 1.1633918859006314e-14
rhumerus -57.09646683476224 5.390706218422916 -96.29876155929927
rradius 89.06374395852782
rwrist -15.367295636077895
rhand -20.964273643925374 1.0
rfingers nan
rthumb 5.478116564345305 9.23821364109334
52
root -1.1638222603118114 17.419343055966216 0.33387148791089416 4.676301267176915 3.3111835356431456 3.134449364733494
lfemur -14.95686922664525 -0.233020876795917 -27.49958780528912
ltibia 52.09291606654046
lfoot -22.302591553559303 -3.546556313169554
ltoes 0.7734699551215432
rfemur -31.14955870701613 -8.430686370485365 18.498798290473506
rtibia 109.32492816810463
rfoot 10.941126454341498 -2.1063300089106543
rtoes 4.014673069902574
lowerback 1.0 0.2658393165807713 -2.882298185688987
upperback 0.37535176792129704 0.18402258387037507 -0.9307772153174781
thorax -8.262727045080812 1.4494269358733547e-05 0.8294154179939526
lowerneck -23.778011256639477 -4.287284624395922 -1.4283465872514831
upperneck 13.50632402052207 -6.281013766449266 3.163424813865077
head 8.016986664196306 -2.5491747507484086 0.5675221583667815
lclavicle -1.8437030076324482e-14 -7.791977793145977e-15
lhumerus -38.27181499070129 -11.78182234292229 92.61994830142226
lradius 114.26081543556522
lwrist 29.772804444493797
lhand -28.78875095608086 -9.036633387761208
lfingers nan
lthumb -2.1042532815709194 21.091078731884597
rclavicle -1.6702303492851115e-14 -6.964821675237529e-15
rhumerus -58.020153346219615 5.99431920008421 -95.98000470633426
rradius 90.17764114279068
rwrist -17.711775369861
rhand -20.43920901914546 1.0
rfingers nan
rthumb 6.008202044594907 10.071061958865458
53
root -1.1778508731987687 17.39596418947576 0.5926587962570471 4.6213492354245185 2.342592968302977 3.0738731924845126
lfemur -12.704256074397424 0.35451418465086126 -27.603871066178726
ltibia 50.84240239234514
lfoot -20.975400724773415 -2.6713703735897703
ltoes -5.74180961288443
rfemur -34.35547638460084 -7.2409868323855076 18.743112716317505
rtibia 107.89857738784195
rfoot 10.658672487578066 -1.6267780004888754
rtoes 11.372746979488532
lowerback 1.0 0.31749041310775883 -3.472219618198128
upperback 0.5345412197040034 0.22568298204135662 -0.5959226388017046
thorax -8.317567959398492 0.00939628877806209 1.3221110653510488
lowerneck -25.026576277197698 -3.9205388017412197 -1.5746079260006178
upperneck 13.954563895631829 -5.553670270328227 2.75145164778815
head 8.291056234696653 -2.3193746442298266 0.5074226784538498
lclavicle 1.3728890907679167e-15 1.1772850121032574e-16
lhumerus -37.288778409876315 -11.122785946455117 92.3476187327274
lradius 116.38372627278723
lwrist 30.5831663147204
lhand -27.990314410192873 -8.455625170921886
lfingers nan
lthumb -1.3409480335654322 21.673776016309937
rclavicle 3.1075585460355892e-15 9.748011873095618e-16
rhumerus -58.91462614682142 6.877059084515819 -95.66900552818042
rradius 91.29608922465749
rwrist -19.47341163086049
rhand -19.87698166468663 1.0
rfingers nan
rthumb 6.559237989494271 10.521653830973085
54
root -1.200558051062248 17.404356486453082 1.3010115636962158 4.680406476755677 1.8121738569412522 2.9087103406691743
lfemur -10.471122500734136 0.6914198867600789 -27.562126971863176
ltibia 49.618951096775476
lfoot -19.38114747199824 -2.4819601580286523
ltoes -10.348336081485751
rfemur -37.32666451048809 -6.658924277587868 18.974317895132533
rtibia 105.69815061734262
rfoot 10.018600827582528 -1.2460055040519267
rtoes 13.631737714259668
lowerback 1.0 0.21474251032158542 -3.9620923125010785
upperback 0.5843800681384532 0.06600102887016224 -0.14059641104917897
thorax -8.250224664391041 -0.10938834080423487 1.906357004706904
lowerneck -25.41273831283252 -3.5661582695087612 -1.8281809730990146
upperneck 14.070158179686025 -4.700805434735699 2.4323517977468203
head 8.394739370983974 -2.060444839511986 0.49945114138243946
lclavicle 1.5957356437248348e-14 -1.2562280828199539e-14
lhumerus -36.74669337927489 -10.355341167706463 92.17171963260101
lradius 118.86112305374435
lwrist 31.977432488780003
lhand -27.66282934903476 -8.076210594449757
lfingers nan
lthumb -1.0276051752929993 22.037807455971457
rclavicle 1.814229963237945e-14 -1.1366389001698495e-14
rhumerus -59.91132088695395 7.972821545968936 -95.38403384229062
rradius 92.37229735823384
rwrist -20.790815668910525
rhand -19.593861616563522 1.0
rfingers nan
rthumb 6.8441090329845835 10.763698366987065
